<svg width="350" height="146" viewBox="0 0 350 146" fill="none" xmlns="http://www.w3.org/2000/svg">
<path d="M80 142.332H48.75V2.33203H96.25L105 61.082H106.25L112.5 2.33203H160V142.332H128.75V58.582H127.5L116.25 142.332H92.5L80 58.582V142.332Z" fill="black"/>
<path d="M172.5 1.08203C177.5 1.08203 212.5 -0.167972 231.25 2.33203C246.25 3.58203 253.75 16.082 255 31.082C256.25 58.582 256.25 86.082 256.25 113.582C256.25 116.082 256.25 119.832 255 123.582C252.5 134.832 246.25 141.082 231.25 142.332C212.5 143.582 193.75 143.582 176.25 143.582C176.25 143.582 175 143.582 173.75 143.582V1.08203H172.5ZM210 27.332V117.332C216.25 117.332 220 114.832 220 108.582C220 84.832 220 59.832 220 34.832C220 28.582 217.5 26.082 210 27.332Z" fill="black"/>
<path d="M0 142.332V2.33203H36.25V142.332H0Z" fill="black"/>
<path d="M348.75 54.832C347.5 44.832 341.25 39.832 331.25 37.332C321.25 36.082 311.25 37.332 302.5 46.082V2.33203H267.5V142.332H300C301.25 139.832 301.25 137.332 302.5 136.082C302.5 136.082 302.5 136.082 303.75 136.082C305 137.332 306.25 138.582 307.5 139.832C316.25 146.082 326.25 147.332 336.25 143.582C345 139.832 348.75 132.332 348.75 123.582C348.75 113.582 350 102.332 350 91.082C350 78.582 350 66.082 348.75 54.832ZM313.75 117.332C313.75 119.832 311.25 122.332 308.75 122.332C306.25 122.332 303.75 119.832 303.75 117.332V63.582C303.75 61.082 306.25 58.582 308.75 58.582C311.25 58.582 313.75 61.082 313.75 63.582V117.332Z" fill="black"/>
</svg>
